<?xml version="1.0" encoding="UTF-8"?>
<!DOCTYPE svg PUBLIC "-//W3C//DTD SVG 1.1//EN" "http://www.w3.org/Graphics/SVG/1.1/DTD/svg11.dtd">
<!-- Creator: CorelDRAW 2019 (64-Bit) -->
<svg xmlns="http://www.w3.org/2000/svg" xml:space="preserve" width="100px" height="127px" version="1.1" style="shape-rendering:geometricPrecision; text-rendering:geometricPrecision; image-rendering:optimizeQuality; fill-rule:evenodd; clip-rule:evenodd"
viewBox="0 0 4.93 6.24"
 xmlns:xlink="http://www.w3.org/1999/xlink"
 xmlns:xodm="http://www.corel.com/coreldraw/odm/2003">
 <defs>
  <style type="text/css">
   <![CDATA[
    .str2 {stroke:#AAAAAA;stroke-width:0.05;stroke-miterlimit:22.9256}
    .str1 {stroke:#AAAAAA;stroke-width:0.05;stroke-miterlimit:22.9256}
    .str0 {stroke:#AAAAAA;stroke-width:0.18;stroke-miterlimit:22.9256}
    .str3 {stroke:#AAAAAA;stroke-width:0.18;stroke-miterlimit:22.9256}
    .fil2 {fill:none}
    .fil0 {fill:black}
    .fil1 {fill:#AAAAAA;fill-rule:nonzero}
   ]]>
  </style>
 </defs>
 <g id="Layer_x0020_1">
  <metadata id="CorelCorpID_0Corel-Layer"/>
  <rect class="fil0 str0" x="0.09" y="0.09" width="4.75" height="4.75" rx="0.63" ry="0.63"/>
  <g id="_2997759486080">
   <g>
    <g>
     <g>
      <path class="fil1 str1" d="M3.31 1.91c-0.04,-0.04 -0.09,-0.06 -0.14,-0.06l-0.29 0 0 0c0,-0.05 -0.02,-0.09 -0.05,-0.11 -0.02,-0.03 -0.06,-0.05 -0.11,-0.05l-0.51 0c-0.04,0 -0.08,0.02 -0.11,0.05 -0.03,0.03 -0.05,0.06 -0.05,0.11l0 0 -0.28 0c-0.06,0 -0.11,0.02 -0.14,0.06 -0.04,0.04 -0.06,0.09 -0.06,0.14l0 0.85c0,0.06 0.02,0.11 0.06,0.15 0.03,0.03 0.08,0.06 0.14,0.06l1.4 0c0.05,0 0.1,-0.03 0.14,-0.06 0.03,-0.04 0.06,-0.09 0.06,-0.15l0 -0.85c0,-0.05 -0.03,-0.1 -0.06,-0.14zm-0.03 0.99l0 0c0,0.04 -0.02,0.06 -0.04,0.08 -0.02,0.02 -0.04,0.04 -0.07,0.04l-1.4 0c-0.03,0 -0.06,-0.02 -0.08,-0.04 -0.02,-0.02 -0.03,-0.04 -0.03,-0.08l0 -0.85c0,-0.03 0.01,-0.06 0.03,-0.08 0.02,-0.02 0.05,-0.03 0.08,-0.03l0.33 0c0.02,0 0.05,-0.02 0.05,-0.04l0 -0.05c0,-0.02 0,-0.04 0.01,-0.05 0.02,-0.01 0.03,-0.02 0.05,-0.02l0.51 0c0.02,0 0.04,0.01 0.05,0.02 0.01,0.01 0.02,0.03 0.02,0.05l0 0.05c0,0.02 0.02,0.04 0.05,0.04l0.33 0c0.03,0 0.06,0.01 0.08,0.03 0.02,0.02 0.03,0.05 0.03,0.08l0 0.85z"/>
      <path class="fil1 str1" d="M2.47 2.06c-0.12,0 -0.23,0.05 -0.3,0.12 -0.08,0.08 -0.12,0.18 -0.12,0.3 0,0.12 0.04,0.22 0.12,0.3 0.08,0.07 0.18,0.12 0.3,0.12 0.11,0 0.22,-0.05 0.29,-0.12 0.08,-0.08 0.13,-0.18 0.13,-0.3 0,-0.12 -0.05,-0.22 -0.13,-0.3 -0.07,-0.07 -0.18,-0.12 -0.29,-0.12zm0.23 0.65c-0.06,0.06 -0.14,0.1 -0.23,0.1 -0.09,0 -0.18,-0.04 -0.24,-0.1 -0.06,-0.06 -0.09,-0.14 -0.09,-0.23 0,-0.09 0.04,-0.17 0.09,-0.23 0.06,-0.06 0.15,-0.1 0.24,-0.1 0.09,0 0.17,0.04 0.23,0.1 0.06,0.06 0.1,0.14 0.1,0.23 0,0.09 -0.04,0.17 -0.1,0.23z"/>
      <circle class="fil1 str2" cx="3.08" cy="2.14" r="0.08"/>
     </g>
    </g>
   </g>
   <circle class="fil2 str3" cx="2.47" cy="2.47" r="1.54"/>
  </g>
  <path class="fil1" d="M0.69 6.24l-0.11 0c-0.02,0 -0.02,-0.01 -0.02,-0.03l0 -0.74c0,-0.02 0,-0.03 0.02,-0.03l0.3 0c0.07,0 0.12,0.02 0.15,0.05 0.04,0.04 0.06,0.09 0.06,0.15l0 0.12c0,0.07 -0.02,0.12 -0.06,0.15 -0.03,0.04 -0.08,0.05 -0.15,0.05l-0.15 0c-0.01,0 -0.02,0.01 -0.02,0.02l0 0.23c0,0.02 -0.01,0.03 -0.02,0.03zm0.04 -0.41l0.13 0c0.03,0 0.04,-0.01 0.05,-0.02 0.02,-0.01 0.02,-0.03 0.02,-0.06l0 -0.1c0,-0.03 0,-0.05 -0.02,-0.06 -0.01,-0.01 -0.02,-0.01 -0.05,-0.01l-0.13 0c-0.01,0 -0.02,0 -0.02,0.01l0 0.22c0,0.01 0.01,0.02 0.02,0.02z"/>
  <path id="1" class="fil1" d="M1.35 6.24l-0.11 0c-0.02,0 -0.03,-0.01 -0.03,-0.03l0 -0.74c0,-0.02 0.01,-0.03 0.03,-0.03l0.11 0c0.01,0 0.02,0.01 0.02,0.03l0 0.29c0,0.01 0.01,0.01 0.02,0.01l0.21 0c0.01,0 0.01,0 0.01,-0.01l0 -0.29c0,-0.02 0.01,-0.03 0.03,-0.03l0.1 0c0.02,0 0.03,0.01 0.03,0.03l0 0.74c0,0.02 -0.01,0.03 -0.03,0.03l-0.1 0c-0.02,0 -0.03,-0.01 -0.03,-0.03l0 -0.29c0,-0.01 0,-0.01 -0.01,-0.01l-0.21 0c-0.01,0 -0.02,0 -0.02,0.01l0 0.29c0,0.02 -0.01,0.03 -0.02,0.03z"/>
  <path id="2" class="fil1" d="M2.15 6.1l0.08 0c0.03,0 0.05,0 0.06,-0.02 0.01,-0.01 0.02,-0.03 0.02,-0.05l0 -0.38c0,-0.03 -0.01,-0.05 -0.02,-0.06 -0.01,-0.01 -0.03,-0.01 -0.06,-0.01l-0.08 0c-0.03,0 -0.05,0 -0.06,0.01 -0.01,0.01 -0.02,0.03 -0.02,0.06l0 0.38c0,0.02 0.01,0.04 0.02,0.05 0.01,0.02 0.03,0.02 0.06,0.02zm0.11 0.14l-0.14 0c-0.06,0 -0.11,-0.02 -0.15,-0.05 -0.04,-0.04 -0.05,-0.09 -0.05,-0.15l0 -0.4c0,-0.06 0.01,-0.11 0.05,-0.15 0.04,-0.03 0.09,-0.05 0.15,-0.05l0.14 0c0.07,0 0.12,0.02 0.15,0.05 0.04,0.04 0.06,0.09 0.06,0.15l0 0.4c0,0.06 -0.02,0.11 -0.06,0.15 -0.03,0.03 -0.08,0.05 -0.15,0.05z"/>
  <path id="3" class="fil1" d="M2.86 6.24l-0.1 0c-0.02,0 -0.03,-0.01 -0.03,-0.03l0 -0.62c0,-0.01 0,-0.01 -0.01,-0.01l-0.15 0c-0.01,0 -0.02,-0.01 -0.02,-0.03l0 -0.08c0,-0.02 0.01,-0.03 0.02,-0.03l0.47 0c0.02,0 0.03,0.01 0.03,0.03l0 0.08c0,0.02 -0.01,0.03 -0.03,0.03l-0.14 0c-0.01,0 -0.01,0 -0.01,0.01l0 0.62c0,0.02 -0.01,0.03 -0.03,0.03z"/>
  <path id="4" class="fil1" d="M3.38 6.1l0.09 0c0.03,0 0.05,0 0.06,-0.02 0.01,-0.01 0.01,-0.03 0.01,-0.05l0 -0.38c0,-0.03 0,-0.05 -0.01,-0.06 -0.01,-0.01 -0.03,-0.01 -0.06,-0.01l-0.09 0c-0.02,0 -0.04,0 -0.05,0.01 -0.01,0.01 -0.02,0.03 -0.02,0.06l0 0.38c0,0.02 0.01,0.04 0.02,0.05 0.01,0.02 0.03,0.02 0.05,0.02zm0.12 0.14l-0.14 0c-0.07,0 -0.12,-0.02 -0.15,-0.05 -0.04,-0.04 -0.06,-0.09 -0.06,-0.15l0 -0.4c0,-0.06 0.02,-0.11 0.06,-0.15 0.03,-0.03 0.08,-0.05 0.15,-0.05l0.14 0c0.06,0 0.11,0.02 0.15,0.05 0.03,0.04 0.05,0.09 0.05,0.15l0 0.4c0,0.06 -0.02,0.11 -0.05,0.15 -0.04,0.03 -0.09,0.05 -0.15,0.05z"/>
  <path id="5" class="fil1" d="M3.83 6.03l0 -0.02c0,-0.02 0.01,-0.03 0.03,-0.03l0.1 0c0.02,0 0.03,0.01 0.03,0.03l0 0.01c0,0.03 0,0.05 0.02,0.06 0.01,0.02 0.03,0.02 0.07,0.02l0.05 0c0.04,0 0.06,0 0.07,-0.02 0.01,-0.01 0.02,-0.03 0.02,-0.07l0 -0.01c0,-0.03 -0.01,-0.04 -0.03,-0.06 -0.02,-0.01 -0.04,-0.02 -0.07,-0.02 -0.03,0 -0.06,-0.01 -0.1,-0.01 -0.03,-0.01 -0.06,-0.02 -0.09,-0.03 -0.03,-0.01 -0.05,-0.03 -0.07,-0.07 -0.02,-0.03 -0.03,-0.07 -0.03,-0.12l0 -0.05c0,-0.06 0.02,-0.11 0.05,-0.15 0.04,-0.03 0.09,-0.05 0.16,-0.05l0.12 0c0.07,0 0.12,0.02 0.15,0.05 0.04,0.04 0.06,0.09 0.06,0.15l0 0.03c0,0.01 -0.01,0.02 -0.03,0.02l-0.1 0c-0.02,0 -0.03,-0.01 -0.03,-0.02l0 -0.01c0,-0.03 -0.01,-0.05 -0.02,-0.07 -0.01,-0.01 -0.03,-0.01 -0.07,-0.01l-0.05 0c-0.03,0 -0.05,0 -0.06,0.02 -0.02,0.01 -0.02,0.03 -0.02,0.07l0 0.02c0,0.04 0.03,0.07 0.1,0.07 0.07,0.01 0.13,0.02 0.19,0.04 0.03,0.02 0.05,0.04 0.07,0.07 0.02,0.03 0.03,0.07 0.03,0.12l0 0.04c0,0.07 -0.02,0.12 -0.06,0.15 -0.03,0.04 -0.08,0.06 -0.15,0.06l-0.13 0c-0.07,0 -0.12,-0.02 -0.15,-0.06 -0.04,-0.03 -0.06,-0.08 -0.06,-0.15z"/>
 </g>
</svg>
